<?xml version="1.0" encoding="utf-8"?><svg xmlns:xlink="http://www.w3.org/1999/xlink" id="Scene_1" image-rendering="auto" baseProfile="basic" version="1.1" x="0px" y="0px" width="120" height="120" viewBox="0 0 120 120" xmlns="http://www.w3.org/2000/svg"><g id="Scene 1_2.0"><path fill="#FFF" d="M111.525,57.5Q105.913,52.079 100.3,57.5 100.35,58.467 100.35,59.45 100.35,76.65 88.3,88.7 76.15,100.75 59.1,100.75 41.9,100.75 29.85,88.7 17.7,76.65 17.7,59.45 17.7,58.467 17.75,57.5 12.611,49.936 6.525,57.5 6.5,58.469 6.5,59.45 6.5,81.3 21.95,96.6 37.25,111.95 59.1,111.95 80.8,111.95 96.2,96.6 111.55,81.3 111.55,59.45 111.55,58.469 111.525,57.5"/></g><g id="Scene 1_1.0"><path fill="#FFF" d="M100.3,57.5Q104.92,65.934 111.525,57.5 110.856,37.056 96.2,22.4 80.8,7 59.1,7 37.25,7 21.95,22.4 7.199,37.056 6.525,57.5 11.303,64.589 17.75,57.5 18.401,41.702 29.85,30.3 41.9,18.2 59.1,18.2 76.15,18.2 88.3,30.3 99.655,41.702 100.3,57.5"/></g><g id="Scene 1_0.0"><path fill="#FFF" d="M51.15,40.55Q49.65,39.6 47.95,40.45 46.4,41.35 46.4,43.35L46.4,75.7Q46.4,77.7 47.95,78.55 48.95,78.95 49.55,78.95 50.45,78.95 51.15,78.5L78.75,62.25Q80.3,61.45 80.3,59.45 80.3,57.55 78.75,56.75L51.15,40.55"/></g><defs/></svg>