<?xml version="1.0" encoding="utf-8"?><svg xmlns:xlink="http://www.w3.org/1999/xlink" id="Scene_1" image-rendering="auto" baseProfile="basic" version="1.1" x="0px" y="0px" width="224" height="37" viewBox="0 0 224 37" xmlns="http://www.w3.org/2000/svg"><g id="Scene 1_1.0"><path fill="#606163" d="M168.05,17.2Q169.55,16.6 171.2,16.8 171.55,16.9 171.55,16.5L171.55,13.55Q171.55,13.25 171.2,13.2 170.6,13.15 169.7,13.25 168,13.4 166.75,14.05 165.95,14.4 165.15,15 163.95,16 163.35,17.1 163.25,17.1 163.25,16.7L163.25,13.85Q163.25,13.5 162.9,13.5L160.1,13.5Q159.8,13.5 159.8,13.85L159.8,35.5Q159.8,35.85 160.1,35.85L163.1,35.85Q163.5,35.85 163.5,35.5L163.5,25.55Q163.5,23.15 163.8,22.05 164.25,20.2 165.15,19.2 166.4,17.85 168.05,17.2"/><path fill="#606163" d="M156.4,13.85Q156.4,13.5 156.05,13.5L153.05,13.5Q152.7,13.5 152.7,13.85L152.7,26.45 152.6,27.4Q152.45,28.4 152.3,28.9 151.95,30.2 151.05,31.15 150.25,32.1 149.05,32.65 147.8,33.15 146.1,33.15 144,33.15 142.75,31.9 141.5,30.7 141.5,28.65L141.5,13.85Q141.5,13.5 141.2,13.5L138.25,13.5Q137.9,13.5 137.9,13.85L138,29.7Q138.1,30.9 138.25,31.5 138.6,33.05 139.55,34.05 140.4,35.15 141.9,35.75 143.4,36.3 145.55,36.3 148.1,36.3 149.9,35.35 151.65,34.45 152.85,32.3 152.9,32.3 152.9,32.7L152.9,35.5Q152.9,35.85 153.3,35.85L156.05,35.85Q156.4,35.85 156.4,35.5L156.4,13.85"/><path fill="#606163" d="M110.5,13.5Q110.15,13.5 110.05,13.85L104.2,31.8 104.05,32.15 103.9,31.8 97.85,13.85Q97.7,13.5 97.35,13.5L93.9,13.5Q93.6,13.5 93.7,13.85L101.8,35.55Q101.9,35.85 102.3,35.85L105.45,35.85Q105.8,35.85 106,35.55L113.9,13.85Q114.05,13.5 113.65,13.5L110.5,13.5"/><path fill="#ACDEEE" d="M84.9,1.9Q83.7,3.05 83.7,4.8 83.7,6.5 84.9,7.7 86.05,8.9 87.8,8.9 89.5,8.9 90.7,7.7 91.9,6.5 91.9,4.8 91.9,3.05 90.7,1.9 89.5,0.65 87.8,0.65 86.05,0.65 84.9,1.9"/><path fill="#F39F4F" d="M77.55,0.65Q75.85,0.65 74.6,1.9 73.45,3.05 73.45,4.8 73.45,6.5 74.6,7.7 75.85,8.9 77.55,8.9 79.25,8.9 80.45,7.7 81.65,6.5 81.65,4.8 81.65,3.05 80.45,1.9 79.25,0.65 77.55,0.65"/><path fill="#C1D94C" d="M64.4,7.7Q65.65,8.9 67.3,8.9 69,8.9 70.25,7.7 71.4,6.5 71.4,4.8 71.4,3.05 70.25,1.9 69,0.65 67.3,0.65 65.65,0.65 64.4,1.9 63.25,3.05 63.25,4.8 63.25,6.5 64.4,7.7"/><path fill="#606163" d="M69.55,16.55Q68.85,15.2 67.6,14.4 66.4,13.65 64.75,13.3 63.1,13 61.3,13 59.75,13 58.35,13.35 56.8,13.7 55.6,14.45 54.5,15.15 53.7,16.45 52.9,17.65 52.9,19.35 52.9,21.5 54,22.75 55.05,23.9 56.7,24.55 58.35,25.3 60.2,25.65 62.35,26.05 63.75,26.45 65.3,26.85 66.45,27.65 67.55,28.4 67.55,29.8 67.55,30.85 67,31.5 66.45,32.2 65.75,32.55 64.9,32.85 63.95,33 62.85,33.15 62.15,33.15 61.05,33.15 59.95,32.9 58.9,32.7 58.05,32.25 57.2,31.7 56.7,30.85 56.5,30.5 56.35,29.8L56.2,29.15Q56.15,28.8 55.75,28.8L52.8,28.8Q52.45,28.8 52.5,29.15L52.7,30.4Q52.95,31.7 53.25,32.35 54.05,33.75 55.4,34.7 56.65,35.55 58.4,35.95 59.95,36.3 61.9,36.3 63.55,36.3 65.3,36 67.05,35.65 68.4,34.9 69.75,34 70.6,32.7 71.45,31.35 71.45,29.3 71.45,27.8 70.8,26.65 70.2,25.6 69.15,24.8 68.15,24.15 66.85,23.7 65.3,23.25 64.15,23L61.55,22.35Q60.2,22.1 59.2,21.7 58.15,21.25 57.45,20.65 56.8,20 56.8,19.05 56.8,18.25 57.25,17.65 57.65,17.15 58.4,16.8 59,16.5 59.9,16.35 60.7,16.25 61.55,16.25 62.45,16.25 63.4,16.4 64.3,16.65 64.95,17 65.7,17.4 66.2,18.2 66.5,18.7 66.7,19.6 66.75,19.95 67.1,19.95L70.05,19.95Q70.45,19.95 70.4,19.6 70.05,17.45 69.55,16.55"/><path fill="#FED639" d="M52.95,4.8Q52.95,6.5 54.15,7.7 55.35,8.9 57.05,8.9 58.8,8.9 59.95,7.7 61.2,6.5 61.2,4.8 61.2,3.05 59.95,1.9 58.8,0.65 57.05,0.65 55.35,0.65 54.15,1.9 52.95,3.05 52.95,4.8"/><path fill="#606163" d="M89.3,14.1Q87.95,13.4 86.55,13.2 85.15,13 83.55,13 81.55,13 80,13.4 78.3,13.8 77,14.65 75.7,15.55 74.95,16.95 74.4,17.95 74.1,20.15 74.05,20.5 74.45,20.5L77.4,20.5Q77.75,20.5 77.85,20.15 78,19.5 78.25,18.85 78.8,17.45 79.4,17.1 81.05,16.25 83.35,16.25 84.1,16.25 85.1,16.35 85.95,16.5 86.65,16.9 87.4,17.25 87.85,18.05 88.3,18.75 88.3,19.95 88.3,21 87.7,21.5 87.15,22.05 86.05,22.35 85.05,22.65 83.65,22.8 82.6,22.95 80.8,23.25 79.25,23.55 78,23.9 76.7,24.25 75.6,25.05 74.5,25.8 73.85,27 73.315,28.029 73.225,29.5 75.446,30.783 77.075,29.5 77.146,28.433 77.75,27.7 78.4,26.8 79.3,26.4 80.6,25.95 81.55,25.8L84.1,25.5Q85.7,25.25 86.45,25.1 87.2,24.95 87.95,24.5 88.25,24.35 88.25,24.65L88.25,28.05Q88.25,28.7 87.95,29.5 90.266,31.245 92,29.5L91.95,19.15Q91.95,17.15 91.2,16 90.5,14.8 89.3,14.1"/><path fill="#606163" d="M127.5,16.75Q128.7,17.35 129.7,18.4 130.6,19.45 131.15,21.1 131.7,22.75 131.7,24.65 131.7,24.954 131.675,25.25 133.916,27.104 135.6,25.25 135.6,24.953 135.6,24.65 135.6,22.25 134.95,20.05 134.2,18 132.85,16.35 131.5,14.85 129.45,13.9 127.4,13 124.75,13 122.15,13 120.05,13.9 118,14.85 116.65,16.35 115.25,18 114.55,20.05 113.9,22.25 113.9,24.65 113.9,24.953 113.9,25.25 115.558,26.712 117.8,25.25 117.8,24.956 117.8,24.65 117.8,22.65 118.35,21.1 118.8,19.5 119.8,18.4 120.8,17.35 122.05,16.75 123.25,16.25 124.75,16.25 126.2,16.25 127.5,16.75"/></g><g id="Scene 1_0.0"><path fill="#606163" d="M91.55,36.35Q92.75,36.35 93.85,35.95 94.25,35.8 94.25,35.45L94.25,33.3Q94.25,32.95 93.85,33.05 93.4,33.1 93.1,33.1 92.25,33.1 92.1,32.5 92.05,32.25 92,31.55L92,29.5Q90.247,27.231 87.95,29.5 87.903,29.623 87.85,29.75 87.5,30.6 86.65,31.35 85.75,32.2 84.6,32.65 83.25,33.1 81.45,33.1 80.6,33.1 79.8,32.95 79,32.75 78.4,32.4 77.9,32.05 77.5,31.35 77.05,30.7 77.05,29.85 77.05,29.671 77.075,29.5 75.342,27.578 73.225,29.5 73.2,29.815 73.2,30.15 73.2,31.75 73.8,33 74.35,34.2 75.4,34.95 76.35,35.65 77.75,36 79.1,36.35 80.6,36.35 82.85,36.35 84.95,35.55 87,34.75 88.45,32.95 88.45,34.75 89.35,35.55 90.2,36.35 91.55,36.35"/><path fill="#606163" d="M134.95,29.25Q135.521,27.404 135.6,25.25 133.638,23.177 131.675,25.25 131.616,26.901 131.15,28.3 130.6,29.95 129.7,30.95 128.8,31.95 127.5,32.55 126.15,33.15 124.75,33.15 123.35,33.15 122.05,32.55 120.75,31.95 119.8,30.95 118.85,29.9 118.35,28.3 117.88,26.976 117.8,25.25 115.85,23.659 113.9,25.25 113.979,27.404 114.55,29.25 115.25,31.4 116.65,33 118.1,34.6 120.05,35.45 122.05,36.3 124.75,36.3 127.5,36.3 129.45,35.45 131.4,34.6 132.85,33 134.2,31.4 134.95,29.25"/></g><defs/></svg>