<svg height="37" version="1.1" width="224" xmlns="http://www.w3.org/2000/svg" id="svgSirenodn80" viewBox="0 0 224 37" preserveAspectRatio="xMidYMid meet"><desc>Created with Snap</desc><defs></defs><g token="svgSirenodn80" class="movieclip"><g token="19" transform="matrix(0.994,0,0,0.99,69.65,0.25)" class="shape"><path fill="#575756" d="M 123 13.3q0 -0.35 -0.4 -0.35q-2.5 -0.2 -4.6 0.85q-2.4 1.2 -3.5 3.15q-0.1 0 -0.1 -0.35l0 -3q0 -0.35 -0.35 -0.35l-2.85 0q-0.35 0 -0.35 0.35l0 22.4q0 0.35 0.35 0.35l3.05 0q0.4 0 0.4 -0.35l0 -10.3q0 -2.45 0.3 -3.6q0.5 -1.85 1.45 -2.95q1.45 -1.55 2.95 -2.05q1.6 -0.65 3.25 -0.4q0.4 0 0.4 -0.35l0 -3.05"></path></g><g token="18" transform="matrix(0.99,0,0,0.99,0.4,0.25)" class="shape"><path fill="#575756" d="M 42.75 36.4q0.35 -0.1 0.35 -0.5l0 -2.2q0 -0.3 -0.35 -0.3l-0.8 0.1q-0.9 0 -1.05 -0.6l-0.15 -1.6l0 -12.25q0 -1.95 -0.75 -3.25q-0.85 -1.25 -2.05 -1.95q-1.2 -0.65 -2.75 -0.9q-1.4 -0.2 -3.15 -0.2q-2.1 0 -3.65 0.4q-1.7 0.35 -3.1 1.3q-1.3 0.9 -2.15 2.4q-0.5 1 -0.8 3.25q-0.1 0.35 0.3 0.35l3.05 0q0.35 0 0.45 -0.35q0.15 -0.6 0.45 -1.3q0.55 -1.4 1.2 -1.8q1.65 -0.9 4.05 -0.9q0.6 0 1.8 0.1q0.85 0.15 1.65 0.55q0.8 0.5 1.2 1.15q0.5 0.8 0.5 2.05q0 1.1 -0.65 1.6q-0.5 0.5 -1.7 0.85q-1 0.3 -2.45 0.45q-1.6 0.15 -3 0.5q-1.05 0.15 -2.9 0.65q-1.4 0.4 -2.5 1.2q-1.05 0.75 -1.75 2q-0.65 1.25 -0.65 3.25q0 1.75 0.6 2.95q0.55 1.2 1.6 2q1.15 0.85 2.45 1.1q1.35 0.35 3 0.35q2.5 0 4.45 -0.8q2.05 -0.8 3.65 -2.7q0 1.9 0.9 2.7q0.8 0.8 2.35 0.8q1.15 0 2.35 -0.45M 36.95 24.8l0 3.5q0 0.7 -0.4 1.75q-0.45 0.95 -1.25 1.65q-0.85 0.75 -2.2 1.3q-1.3 0.5 -3.2 0.5q-0.95 0 -1.7 -0.15q-0.85 -0.15 -1.45 -0.6q-0.55 -0.35 -0.95 -1.05q-0.4 -0.65 -0.4 -1.55q0 -1.45 0.65 -2.25q0.75 -0.9 1.7 -1.25q1.1 -0.5 2.3 -0.65l5 -0.75q0.8 -0.2 1.55 -0.6q0.35 -0.15 0.35 0.15"></path></g><g token="17" transform="matrix(0.99,0,0,0.99,0.4,0.25)" class="shape"><path fill="#575756" d="M 63.4 13.6q0.2 -0.35 -0.2 -0.35l-3.25 0q-0.4 0 -0.5 0.35l-6.05 18.55l-0.2 0.35l-0.15 -0.35l-6.25 -18.55q-0.1 -0.35 -0.45 -0.35l-3.55 0q-0.35 0 -0.2 0.35l8.3 22.4q0.1 0.35 0.5 0.35l3.35 0q0.35 0 0.5 -0.35l8.15 -22.4"></path></g><g token="16" transform="matrix(0.99,0,0,0.99,-92.065,0.25)" class="shape"><path fill="#575756" d="M 168.05 12.7q-2.65 0 -4.85 0.95q-2 0.95 -3.55 2.55q-1.4 1.65 -2.1 3.85q-0.75 2.25 -0.75 4.8q0 2.55 0.75 4.7q0.65 2.15 2.1 3.85q1.55 1.7 3.55 2.55q2.1 0.9 4.85 0.9q2.75 0 4.85 -0.9q2.1 -0.95 3.5 -2.55q1.4 -1.65 2.15 -3.85q0.7 -2.25 0.7 -4.7q0 -2.45 -0.7 -4.8q-0.8 -2.25 -2.15 -3.85q-1.4 -1.55 -3.5 -2.55q-2.2 -0.95 -4.85 -0.95M 162.95 18.35q0.95 -1.1 2.3 -1.7q1.3 -0.6 2.8 -0.6q1.45 0 2.8 0.6q1.25 0.6 2.3 1.7q1 1.15 1.5 2.75q0.6 1.65 0.6 3.75q0 2.05 -0.6 3.7q-0.5 1.6 -1.5 2.75q-1.2 1.2 -2.3 1.65q-1.35 0.6 -2.8 0.6q-1.5 0 -2.8 -0.6q-1.2 -0.45 -2.3 -1.65q-1.05 -1.25 -1.55 -2.75q-0.55 -1.5 -0.55 -3.7q0 -2.25 0.55 -3.75q0.5 -1.5 1.55 -2.75"></path></g><g token="15" transform="matrix(0.99,0,0,0.99,0.4,0.25)" class="shape"><path fill="#575756" d="M 107.35 13.6q0 -0.35 -0.4 -0.35l-3.05 0q-0.35 0 -0.35 0.35l0 12.35l-0.15 1.65q-0.1 1.05 -0.3 1.6q-0.5 1.4 -1.25 2.3q-0.9 1 -2.15 1.5q-1.35 0.55 -3 0.55q-2.2 0 -3.45 -1.25q-1.25 -1.25 -1.25 -3.4l0 -15.3q0 -0.35 -0.35 -0.35l-3.1 0q-0.35 0 -0.35 0.35l0.1 16.35q0.1 1.3 0.3 1.9q0.4 1.65 1.3 2.7q0.95 1.1 2.45 1.7q1.5 0.6 3.8 0.6q2.55 0 4.45 -1q1.85 -0.95 3.05 -3.15q0.1 0 0.1 0.35l0 2.95q0 0.35 0.35 0.35l2.85 0q0.4 0 0.4 -0.35l0 -22.4"></path></g><g token="14" transform="matrix(0.99,0,0,0.99,0.4,0.25)" class="shape"><path fill="#575756" d="M 123 13.3q0 -0.35 -0.4 -0.35q-2.5 -0.2 -4.6 0.85q-2.4 1.2 -3.5 3.15q-0.1 0 -0.1 -0.35l0 -3q0 -0.35 -0.35 -0.35l-2.85 0q-0.35 0 -0.35 0.35l0 22.4q0 0.35 0.35 0.35l3.05 0q0.4 0 0.4 -0.35l0 -10.3q0 -2.45 0.3 -3.6q0.5 -1.85 1.45 -2.95q1.45 -1.55 2.95 -2.05q1.6 -0.65 3.25 -0.4q0.4 0 0.4 -0.35l0 -3.05"></path></g><g token="13" transform="matrix(0.99,0,0,0.99,0.4,0.25)" class="shape"><path fill="#575756" d="M 157.1 13.6q0.2 -0.35 -0.25 -0.35l-3.2 0q-0.35 0 -0.45 0.35l-5 18.2l-0.15 0.35l-4.75 -18.55q-0.1 -0.35 -0.45 -0.35l-3.45 0q-0.35 0 -0.45 0.35l-4.45 18.2l-0.15 0.35l-0.15 -0.35l-5.05 -18.2q-0.1 -0.35 -0.45 -0.35l-3.45 0q-0.4 0 -0.25 0.35l7.2 22.4q0.1 0.35 0.45 0.35l3.4 0q0.35 0 0.45 -0.35l4.45 -17.65l0.15 -0.35l0.15 0.35l4.5 17.65q0.1 0.35 0.45 0.35l3.3 0q0.35 0 0.45 -0.35l7.15 -22.4"></path></g><g token="12" transform="matrix(0.99,0,0,0.99,0.4,0.25)" class="shape"><path fill="#575756" d="M 199.7 4.8q0 -0.35 -0.35 -0.35l-3.05 0q-0.4 0 -0.4 0.35l0 31.2q0 0.35 0.4 0.35l3.05 0q0.35 0 0.35 -0.35l0 -31.2"></path></g><g token="11" transform="matrix(0.99,0,0,0.99,0.4,0.25)" class="shape"><path fill="#575756" d="M 223.95 4.8q0 -0.35 -0.35 -0.35l-3.1 0q-0.35 0 -0.35 0.35l0 11.15q0 0.4 -0.05 0.4l-0.25 -0.3q-0.7 -0.95 -1.35 -1.45q-0.8 -0.6 -1.95 -1.1q-0.95 -0.45 -2.05 -0.6q-0.85 -0.2 -1.9 -0.2q-2.5 0 -4.65 0.95q-1.85 0.95 -3.3 2.6q-1.25 1.65 -1.95 3.85q-0.65 2.1 -0.65 4.65q0 2.55 0.65 4.65q0.65 2.1 2 3.85q1.3 1.6 3.3 2.6q2.1 1 4.7 1q2.3 0 4.4 -0.85q2.05 -0.8 2.95 -2.75q0.1 0 0.1 0.35l0 2.4q0 0.35 0.35 0.35l3.1 0q0.35 0 0.35 -0.35l0 -31.2M 206.45 21.7q0.3 -1.65 1.15 -2.85q0.8 -1.25 2.15 -2q1.3 -0.8 3.25 -0.8q2 0 3.35 0.75q1.45 0.75 2.25 1.95q0.8 1.1 1.3 2.8q0.4 1.7 0.4 3.3q0 1.45 -0.4 3.15q-0.35 1.5 -1.2 2.8q-1 1.35 -2.2 2q-1.35 0.75 -3.3 0.75q-1.7 0 -3.2 -0.7q-1.4 -0.75 -2.2 -1.95q-0.85 -1.1 -1.3 -2.75q-0.45 -1.5 -0.45 -3.15q0 -1.6 0.4 -3.3"></path></g><g token="10" transform="matrix(0.99,0,0,0.99,0.4,0.25)" class="shape"><path fill="#575756" d="M 9.05 12.7q-1.45 0 -3.05 0.4q-1.4 0.35 -2.8 1.15q-1.35 0.9 -2 2.05q-0.8 1.3 -0.8 3q0 2.2 1.15 3.45q1.15 1.3 2.8 1.95q1.55 0.7 3.6 1.1q2.35 0.45 3.65 0.85q1.65 0.45 2.8 1.2q1.15 0.75 1.15 2.25q0 1.05 -0.55 1.75q-0.5 0.75 -1.35 1.05q-0.7 0.35 -1.85 0.5l-1.85 0.15q-1.1 0 -2.25 -0.25q-1.2 -0.25 -2 -0.7q-0.95 -0.6 -1.4 -1.4q-0.2 -0.35 -0.4 -1.1l-0.1 -0.65q-0.1 -0.4 -0.45 -0.4l-3.05 0q-0.3 0 -0.3 0.4l0.2 1.25q0.3 1.4 0.6 2q0.8 1.5 2.15 2.45q1.4 0.95 3.1 1.3q1.85 0.4 3.65 0.4q1.85 0 3.55 -0.35q1.65 -0.3 3.15 -1.15q1.4 -0.85 2.3 -2.25q0.85 -1.45 0.85 -3.5q0 -1.65 -0.65 -2.75q-0.65 -1.1 -1.7 -1.85q-1.05 -0.75 -2.4 -1.2q-1.3 -0.45 -2.8 -0.75l-2.7 -0.6q-1.35 -0.3 -2.4 -0.75q-1.1 -0.4 -1.75 -1.05q-0.7 -0.65 -0.7 -1.65q0 -0.85 0.45 -1.45q0.5 -0.55 1.15 -0.9q0.8 -0.3 1.6 -0.45l1.7 -0.15q0.65 0 1.85 0.2q1 0.25 1.7 0.65q0.7 0.45 1.25 1.2q0.3 0.5 0.5 1.5q0.1 0.35 0.45 0.35l3.05 0q0.4 0 0.3 -0.35q-0.3 -2.2 -0.8 -3.15q-0.85 -1.5 -2.05 -2.25q-1.3 -0.85 -2.95 -1.15q-1.55 -0.35 -3.6 -0.35"></path></g><g token="9" transform="matrix(0.99,0,0,0.99,0.4,0.25)" class="shape"><path fill="#575756" d="M 168.05 12.7q-2.65 0 -4.85 0.95q-2 0.95 -3.55 2.55q-1.4 1.65 -2.1 3.85q-0.75 2.25 -0.75 4.8q0 2.55 0.75 4.7q0.65 2.15 2.1 3.85q1.55 1.7 3.55 2.55q2.1 0.9 4.85 0.9q2.75 0 4.85 -0.9q2.1 -0.95 3.5 -2.55q1.4 -1.65 2.15 -3.85q0.7 -2.25 0.7 -4.7q0 -2.45 -0.7 -4.8q-0.8 -2.25 -2.15 -3.85q-1.4 -1.55 -3.5 -2.55q-2.2 -0.95 -4.85 -0.95M 162.95 18.35q0.95 -1.1 2.3 -1.7q1.3 -0.6 2.8 -0.6q1.45 0 2.8 0.6q1.25 0.6 2.3 1.7q1 1.15 1.5 2.75q0.6 1.65 0.6 3.75q0 2.05 -0.6 3.7q-0.5 1.6 -1.5 2.75q-1.2 1.2 -2.3 1.65q-1.35 0.6 -2.8 0.6q-1.5 0 -2.8 -0.6q-1.2 -0.45 -2.3 -1.65q-1.05 -1.25 -1.55 -2.75q-0.55 -1.5 -0.55 -3.7q0 -2.25 0.55 -3.75q0.5 -1.5 1.55 -2.75"></path></g><g token="8" transform="matrix(0.99,0,0,0.99,0.4,0.25)" class="shape"><path fill="#fad829" d="M 7.7 7.25q1.25 -1.25 1.25 -3q0 -1.75 -1.25 -3q-1.25 -1.25 -3 -1.25q-1.75 0 -3 1.25q-1.25 1.25 -1.25 3q0 1.75 1.25 3q1.25 1.25 3 1.25q1.75 0 3 -1.25"></path></g><g token="7" transform="matrix(0.99,0,0,0.99,0.4,0.25)" class="shape"><path fill="#c5d724" d="M 18.3 7.25q1.25 -1.25 1.25 -3q0 -1.75 -1.25 -3q-1.25 -1.25 -3 -1.25q-1.75 0 -3 1.25q-1.25 1.25 -1.25 3q0 1.75 1.25 3q1.25 1.25 3 1.25q1.75 0 3 -1.25"></path></g><g token="6" transform="matrix(0.99,0,0,0.99,0.4,0.25)" class="shape"><path fill="#f09e3e" d="M 28.85 7.25q1.25 -1.25 1.25 -3q0 -1.75 -1.25 -3q-1.25 -1.25 -3 -1.25q-1.75 0 -2.95 1.25q-1.25 1.25 -1.25 3q0 1.75 1.25 3q1.2 1.25 2.95 1.25q1.75 0 3 -1.25"></path></g><g token="5" transform="matrix(0.99,0,0,0.99,0.4,0.25)" class="shape"><path fill="#b9e0f1" d="M 36.45 8.5q1.75 0 3 -1.25q1.25 -1.25 1.25 -3q0 -1.75 -1.25 -3q-1.25 -1.25 -3 -1.25q-1.75 0 -3 1.25q-1.25 1.25 -1.25 3q0 1.75 1.25 3q1.25 1.25 3 1.25"></path></g><g token="4" transform="matrix(0.99,0,0,0.99,0.4,0.25)" class="shape"><path fill="#fad829" d="M 7.7 7.25q1.25 -1.25 1.25 -3q0 -1.75 -1.25 -3q-1.25 -1.25 -3 -1.25q-1.75 0 -3 1.25q-1.25 1.25 -1.25 3q0 1.75 1.25 3q1.25 1.25 3 1.25q1.75 0 3 -1.25"></path></g><g token="3" transform="matrix(0.99,0,0,0.99,0.4,0.25)" class="shape"><path fill="#c5d724" d="M 18.3 7.25q1.25 -1.25 1.25 -3q0 -1.75 -1.25 -3q-1.25 -1.25 -3 -1.25q-1.75 0 -3 1.25q-1.25 1.25 -1.25 3q0 1.75 1.25 3q1.25 1.25 3 1.25q1.75 0 3 -1.25"></path></g><g token="2" transform="matrix(0.99,0,0,0.99,0.4,0.25)" class="shape"><path fill="#f09e3e" d="M 28.85 7.25q1.25 -1.25 1.25 -3q0 -1.75 -1.25 -3q-1.25 -1.25 -3 -1.25q-1.75 0 -2.95 1.25q-1.25 1.25 -1.25 3q0 1.75 1.25 3q1.2 1.25 2.95 1.25q1.75 0 3 -1.25"></path></g><g token="1" transform="matrix(0.99,0,0,0.99,0.4,0.25)" class="shape"><path fill="#b9e0f1" d="M 36.45 8.5q1.75 0 3 -1.25q1.25 -1.25 1.25 -3q0 -1.75 -1.25 -3q-1.25 -1.25 -3 -1.25q-1.75 0 -3 1.25q-1.25 1.25 -1.25 3q0 1.75 1.25 3q1.25 1.25 3 1.25"></path></g></g></svg>