<?xml version="1.0" encoding="utf-8"?><svg xmlns:xlink="http://www.w3.org/1999/xlink" id="Scene_1" image-rendering="auto" baseProfile="basic" version="1.1" x="0px" y="0px" width="125" height="37" viewBox="0 0 125 37" xmlns="http://www.w3.org/2000/svg"><g id="Scene 1_1.0"><path fill="#606163" d="M110.9,13.5L108.1,13.5Q107.8,13.5 107.8,13.85L107.8,35.5Q107.8,35.85 108.1,35.85L111.1,35.85Q111.5,35.85 111.5,35.5L111.5,25.55Q111.5,23.15 111.8,22.05 112.25,20.2 113.15,19.2 114.4,17.85 116.05,17.2 117.55,16.6 119.2,16.8 119.55,16.9 119.55,16.5L119.55,13.55Q119.55,13.25 119.2,13.2 118.6,13.15 117.7,13.25 116,13.4 114.75,14.05 113.95,14.4 113.15,15 111.95,16 111.35,17.1 111.25,17.1 111.25,16.7L111.25,13.85Q111.25,13.5 110.9,13.5"/><path fill="#606163" d="M104.4,13.85Q104.4,13.5 104.05,13.5L101.05,13.5Q100.7,13.5 100.7,13.85L100.7,26.45 100.6,27.4Q100.45,28.4 100.3,28.9 99.95,30.2 99.05,31.15 98.25,32.1 97.05,32.65 95.8,33.15 94.1,33.15 92,33.15 90.75,31.9 89.5,30.7 89.5,28.65L89.5,13.85Q89.5,13.5 89.2,13.5L86.25,13.5Q85.9,13.5 85.9,13.85L86,29.7Q86.1,30.9 86.25,31.5 86.6,33.05 87.55,34.05 88.4,35.15 89.9,35.75 91.4,36.3 93.55,36.3 96.1,36.3 97.9,35.35 99.65,34.45 100.85,32.3 100.9,32.3 100.9,32.7L100.9,35.5Q100.9,35.85 101.3,35.85L104.05,35.85Q104.4,35.85 104.4,35.5L104.4,13.85"/><path fill="#606163" d="M83.6,24.65Q83.6,22.25 82.95,20.05 82.2,18 80.85,16.35 79.5,14.85 77.45,13.9 75.4,13 72.75,13 70.15,13 68.05,13.9 66,14.85 64.65,16.35 63.25,18 62.55,20.05 61.9,22.25 61.9,24.65 61.9,25.081 61.925,25.5 63.875,27.487 65.825,25.5 65.8,25.087 65.8,24.65 65.8,22.65 66.35,21.1 66.8,19.5 67.8,18.4 68.8,17.35 70.05,16.75 71.25,16.25 72.75,16.25 74.2,16.25 75.5,16.75 76.7,17.35 77.7,18.4 78.6,19.45 79.15,21.1 79.7,22.75 79.7,24.65 79.7,25.083 79.675,25.5 81.625,27.629 83.575,25.5 83.6,25.081 83.6,24.65"/><path fill="#606163" d="M61.9,13.85Q62.05,13.5 61.65,13.5L58.5,13.5Q58.15,13.5 58.05,13.85L52.2,31.8 52.05,32.15 51.9,31.8 45.85,13.85Q45.7,13.5 45.35,13.5L41.9,13.5Q41.6,13.5 41.7,13.85L49.8,35.55Q49.9,35.85 50.3,35.85L53.45,35.85Q53.8,35.85 54,35.55L61.9,13.85"/><path fill="#ACDEEE" d="M39.9,4.8Q39.9,3.05 38.7,1.9 37.5,0.65 35.8,0.65 34.05,0.65 32.9,1.9 31.7,3.05 31.7,4.8 31.7,6.5 32.9,7.7 34.05,8.9 35.8,8.9 37.5,8.9 38.7,7.7 39.9,6.5 39.9,4.8"/><path fill="#F39F4F" d="M29.65,4.8Q29.65,3.05 28.45,1.9 27.25,0.65 25.55,0.65 23.85,0.65 22.6,1.9 21.45,3.05 21.45,4.8 21.45,6.5 22.6,7.7 23.85,8.9 25.55,8.9 27.25,8.9 28.45,7.7 29.65,6.5 29.65,4.8"/><path fill="#606163" d="M25,14.65Q23.7,15.55 22.95,16.95 22.4,17.95 22.1,20.15 22.05,20.5 22.45,20.5L25.4,20.5Q25.75,20.5 25.85,20.15 26,19.5 26.25,18.85 26.8,17.45 27.4,17.1 29.05,16.25 31.35,16.25 32.1,16.25 33.1,16.35 33.95,16.5 34.65,16.9 35.4,17.25 35.85,18.05 36.3,18.75 36.3,19.95 36.3,21 35.7,21.5 35.15,22.05 34.05,22.35 33.05,22.65 31.65,22.8 30.6,22.95 28.8,23.25 27.25,23.55 26,23.9 24.7,24.25 23.6,25.05 22.5,25.8 21.85,27 21.315,28.029 21.225,29.5 23.15,31.156 25.075,29.5 25.146,28.433 25.75,27.7 26.4,26.8 27.3,26.4 28.6,25.95 29.55,25.8L32.1,25.5Q33.7,25.25 34.45,25.1 35.2,24.95 35.95,24.5 36.25,24.35 36.25,24.65L36.25,28.05Q36.25,28.7 35.95,29.5 37.503,31.106 40,29.5L39.95,19.15Q39.95,17.15 39.2,16 38.5,14.8 37.3,14.1 35.95,13.4 34.55,13.2 33.15,13 31.55,13 29.55,13 28,13.4 26.3,13.8 25,14.65"/><path fill="#C1D94C" d="M18.25,7.7Q19.4,6.5 19.4,4.8 19.4,3.05 18.25,1.9 17,0.65 15.3,0.65 13.65,0.65 12.4,1.9 11.25,3.05 11.25,4.8 11.25,6.5 12.4,7.7 13.65,8.9 15.3,8.9 17,8.9 18.25,7.7"/><path fill="#FED639" d="M9.2,4.8Q9.2,3.05 7.95,1.9 6.8,0.65 5.05,0.65 3.35,0.65 2.15,1.9 0.95,3.05 0.95,4.8 0.95,6.5 2.15,7.7 3.35,8.9 5.05,8.9 6.8,8.9 7.95,7.7 9.2,6.5 9.2,4.8"/><path fill="#606163" d="M5.25,17.65Q5.65,17.15 6.4,16.8 7,16.5 7.9,16.35 8.7,16.25 9.55,16.25 10.45,16.25 11.4,16.4 12.3,16.65 12.95,17 13.7,17.4 14.2,18.2 14.5,18.7 14.7,19.6 14.75,19.95 15.1,19.95L18.05,19.95Q18.45,19.95 18.4,19.6 18.05,17.45 17.55,16.55 16.85,15.2 15.6,14.4 14.4,13.65 12.75,13.3 11.1,13 9.3,13 7.75,13 6.35,13.35 4.8,13.7 3.6,14.45 2.5,15.15 1.7,16.45 0.9,17.65 0.9,19.35 0.9,21.5 2,22.75 3.05,23.9 4.7,24.55 6.35,25.3 8.2,25.65 10.35,26.05 11.75,26.45 13.3,26.85 14.45,27.65 15.55,28.4 15.55,29.8 15.55,30.85 15,31.5 14.45,32.2 13.75,32.55 12.9,32.85 11.95,33 10.85,33.15 10.15,33.15 9.05,33.15 7.95,32.9 6.9,32.7 6.05,32.25 5.2,31.7 4.7,30.85 4.5,30.5 4.35,29.8L4.2,29.15Q4.15,28.8 3.75,28.8L0.8,28.8Q0.45,28.8 0.5,29.15L0.7,30.4Q0.95,31.7 1.25,32.35 2.05,33.75 3.4,34.7 4.65,35.55 6.4,35.95 7.95,36.3 9.9,36.3 11.55,36.3 13.3,36 15.05,35.65 16.4,34.9 17.75,34 18.6,32.7 19.45,31.35 19.45,29.3 19.45,27.8 18.8,26.65 18.2,25.6 17.15,24.8 16.15,24.15 14.85,23.7 13.3,23.25 12.15,23L9.55,22.35Q8.2,22.1 7.2,21.7 6.15,21.25 5.45,20.65 4.8,20 4.8,19.05 4.8,18.25 5.25,17.65"/></g><g id="Scene 1_0.0"><path fill="#606163" d="M82.95,29.25Q83.488,27.512 83.575,25.5 81.426,23.712 79.675,25.5 79.581,27.007 79.15,28.3 78.6,29.95 77.7,30.95 76.8,31.95 75.5,32.55 74.15,33.15 72.75,33.15 71.35,33.15 70.05,32.55 68.75,31.95 67.8,30.95 66.85,29.9 66.35,28.3 65.914,27.072 65.825,25.5 63.875,23.811 61.925,25.5 62.012,27.512 62.55,29.25 63.25,31.4 64.65,33 66.1,34.6 68.05,35.45 70.05,36.3 72.75,36.3 75.5,36.3 77.45,35.45 79.4,34.6 80.85,33 82.2,31.4 82.95,29.25"/><path fill="#606163" d="M41.85,35.95Q42.25,35.8 42.25,35.45L42.25,33.3Q42.25,32.95 41.85,33.05 41.4,33.1 41.1,33.1 40.25,33.1 40.1,32.5 40.05,32.25 40,31.55L40,29.5Q37.714,27.933 35.95,29.5 35.903,29.623 35.85,29.75 35.5,30.6 34.65,31.35 33.75,32.2 32.6,32.65 31.25,33.1 29.45,33.1 28.6,33.1 27.8,32.95 27,32.75 26.4,32.4 25.9,32.05 25.5,31.35 25.05,30.7 25.05,29.85 25.05,29.671 25.075,29.5 22.953,27.723 21.225,29.5 21.2,29.815 21.2,30.15 21.2,31.75 21.8,33 22.35,34.2 23.4,34.95 24.35,35.65 25.75,36 27.1,36.35 28.6,36.35 30.85,36.35 32.95,35.55 35,34.75 36.45,32.95 36.45,34.75 37.35,35.55 38.2,36.35 39.55,36.35 40.75,36.35 41.85,35.95"/></g><defs/></svg>